<?xml version="1.0" standalone="no"?>
<!DOCTYPE svg PUBLIC "-//W3C//DTD SVG 20010904//EN"
 "http://www.w3.org/TR/2001/REC-SVG-20010904/DTD/svg10.dtd">
<svg version="1.0" xmlns="http://www.w3.org/2000/svg"
 width="1001.000000pt" height="2080.000000pt" viewBox="0 0 1001.000000 2080.000000"
 preserveAspectRatio="xMidYMid meet">

<g transform="translate(0.000000,2080.000000) scale(0.100000,-0.100000)"
fill="#000000" stroke="none">
<path d="M0 10400 l0 -10400 5005 0 5005 0 0 10400 0 10400 -5005 0 -5005 0 0
-10400z m6747 2713 c-3 -10 -5 -4 -5 12 0 17 2 24 5 18 2 -7 2 -21 0 -30z m0
-155 c-2 -18 -4 -6 -4 27 0 33 2 48 4 33 2 -15 2 -42 0 -60z m-1970 -80 c-2
-29 -3 -6 -3 52 0 58 1 81 3 53 2 -29 2 -77 0 -105z m-37 -32 c0 -3 -4 -8 -10
-11 -5 -3 -10 -1 -10 4 0 6 5 11 10 11 6 0 10 -2 10 -4z m1973 -45 c-13 -11
-23 -24 -23 -30 0 -6 -4 -11 -10 -11 -5 0 -10 4 -10 10 0 12 41 50 54 50 6 -1
1 -9 -11 -19z m64 3 c-3 -3 -12 -4 -19 -1 -8 3 -5 6 6 6 11 1 17 -2 13 -5z
m78 -14 c4 -6 -7 -10 -25 -10 -18 0 -29 4 -25 10 3 6 15 10 25 10 10 0 22 -4
25 -10z m-1990 -10 c8 -13 -5 -13 -25 0 -13 8 -13 10 2 10 9 0 20 -4 23 -10z
m-198 -6 c-3 -3 -12 -4 -19 -1 -8 3 -5 6 6 6 11 1 17 -2 13 -5z m2087 -3 c3
-4 -6 -13 -19 -19 -27 -12 -33 -4 -13 16 14 14 25 15 32 3z m41 -11 c3 -5 2
-10 -4 -10 -5 0 -13 5 -16 10 -3 6 -2 10 4 10 5 0 13 -4 16 -10z m115 -5 c7
-8 8 -15 2 -15 -5 0 -15 7 -22 15 -7 8 -8 15 -2 15 5 0 15 -7 22 -15z m-2300
-3 c0 -5 -12 -15 -27 -23 -16 -8 -30 -17 -33 -20 -3 -4 -16 -10 -30 -14 -22
-7 -23 -6 -8 8 8 9 27 19 41 22 14 4 28 13 31 21 6 15 26 20 26 6z m320 -12
c0 -5 -2 -10 -4 -10 -3 0 -8 5 -11 10 -3 6 -1 10 4 10 6 0 11 -4 11 -10z
m1696 -2 c5 -8 2 -9 -11 -4 -12 4 -26 -1 -42 -16 -19 -18 -26 -19 -36 -9 -10
11 -9 13 3 9 8 -2 23 4 34 14 23 21 42 23 52 6z m-1966 -8 c0 -5 -4 -10 -10
-10 -5 0 -10 5 -10 10 0 6 5 10 10 10 6 0 10 -4 10 -10z m2214 4 c9 -3 14 -10
11 -14 -3 -4 10 -14 28 -21 38 -16 61 -36 48 -43 -5 -3 -14 1 -21 9 -7 8 -18
15 -24 15 -6 0 -23 11 -37 24 -14 13 -34 26 -45 29 -17 4 -16 5 3 6 12 0 28
-2 37 -5z m89 -8 c12 -9 14 -16 8 -21 -6 -3 -11 -1 -11 5 0 8 -9 10 -26 6 -22
-6 -24 -5 -12 8 16 19 19 19 41 2z m-1988 -6 c8 -13 -5 -13 -25 0 -13 8 -13
10 2 10 9 0 20 -4 23 -10z m1655 -24 c0 -2 -7 -7 -16 -10 -8 -3 -12 -2 -9 4 6
10 25 14 25 6z m380 -6 c-20 -13 -33 -13 -25 0 3 6 14 10 23 10 15 0 15 -2 2
-10z m-2535 -20 c-3 -5 -11 -10 -16 -10 -6 0 -7 5 -4 10 3 6 11 10 16 10 6 0
7 -4 4 -10z m2030 -1 c11 -17 2 -18 -19 -3 -17 12 -17 14 -4 14 9 0 20 -5 23
-11z m75 1 c0 -5 -10 -10 -22 -10 -19 0 -20 2 -8 10 19 13 30 13 30 0z m489
-9 c13 -10 20 -21 15 -23 -12 -7 -76 27 -67 36 11 10 27 6 52 -13z m-2009 -6
c0 -9 -6 -12 -15 -9 -8 4 -15 10 -15 15 0 5 7 9 15 9 8 0 15 -7 15 -15z m1405
-15 c-3 -6 4 -14 16 -18 16 -6 19 -11 10 -17 -7 -4 -16 -3 -20 2 -3 5 -14 12
-24 16 -21 8 -14 27 9 27 8 0 12 -5 9 -10z m75 0 c-20 -13 -33 -13 -25 0 3 6
14 10 23 10 15 0 15 -2 2 -10z m474 4 c9 -4 21 -15 27 -26 9 -17 8 -18 -8 -9
-52 28 -65 53 -19 35z m-1879 -24 c3 -5 1 -10 -4 -10 -6 0 -11 5 -11 10 0 6 2
10 4 10 3 0 8 -4 11 -10z m1980 -3 c-11 -8 -29 -17 -40 -20 -17 -6 -17 -4 4
13 13 11 30 20 39 20 13 0 13 -3 -3 -13z m-2755 -12 c-7 -9 -15 -13 -19 -10
-3 3 1 10 9 15 21 14 24 12 10 -5z m2020 11 c0 -4 -52 -37 -97 -62 -47 -26
-21 3 30 33 50 30 67 37 67 29z m40 0 c0 -11 -19 -15 -25 -6 -3 5 1 10 9 10 9
0 16 -2 16 -4z m745 -6 c3 -6 -1 -7 -9 -4 -18 7 -21 14 -7 14 6 0 13 -4 16
-10z m-1995 -4 c0 -3 -4 -8 -10 -11 -5 -3 -10 -1 -10 4 0 6 5 11 10 11 6 0 10
-2 10 -4z m-848 -28 c-7 -7 -12 -8 -12 -2 0 14 12 26 19 19 2 -3 -1 -11 -7
-17z m2133 12 c-3 -5 -12 -10 -19 -10 -7 0 -25 -9 -39 -20 -28 -22 -42 -26
-31 -9 4 7 1 10 -7 7 -8 -3 -15 -10 -15 -16 -3 -22 -4 -23 -15 -17 -14 10 29
55 46 49 7 -3 26 1 42 10 33 18 47 20 38 6z m740 0 c3 -5 1 -10 -4 -10 -6 0
-11 5 -11 10 0 6 2 10 4 10 3 0 8 -4 11 -10z m-1989 -9 c-3 -5 8 -11 25 -15
19 -3 28 -10 23 -17 -4 -7 -9 -8 -13 -1 -3 5 -15 11 -25 13 -21 4 -35 29 -16
29 6 0 9 -4 6 -9z m1914 -9 c0 -12 -3 -12 -17 -1 -10 7 -20 14 -22 16 -2 1 6
1 18 0 11 -1 21 -8 21 -15z m-2577 -9 c-7 -2 -19 -2 -25 0 -7 3 -2 5 12 5 14
0 19 -2 13 -5z m337 -3 c0 -5 -2 -10 -4 -10 -3 0 -8 5 -11 10 -3 6 -1 10 4 10
6 0 11 -4 11 -10z m2350 6 c0 -2 -7 -7 -16 -10 -8 -3 -12 -2 -9 4 6 10 25 14
25 6z m-2301 -27 c17 -6 31 -15 31 -19 0 -5 8 -11 18 -13 13 -4 11 -5 -5 -6
-13 0 -23 4 -23 9 0 6 -6 10 -12 10 -12 1 -58 30 -46 30 3 0 19 -5 37 -11z
m-689 -9 c0 -5 -7 -10 -16 -10 -8 0 -12 5 -9 10 3 6 10 10 16 10 5 0 9 -4 9
-10z m470 1 c0 -10 -24 -21 -46 -21 -8 0 -14 4 -14 9 0 8 10 12 53 20 4 0 7
-3 7 -8z m310 -7 c0 -8 -4 -12 -10 -9 -5 3 -10 10 -10 16 0 5 5 9 10 9 6 0 10
-7 10 -16z m305 -9 c32 -19 36 -24 19 -25 -12 0 -25 7 -28 16 -3 9 -13 14 -20
11 -8 -3 -20 1 -26 9 -20 23 9 18 55 -11z m-225 11 c0 -2 -7 -6 -15 -10 -8 -3
-15 -1 -15 4 0 6 7 10 15 10 8 0 15 -2 15 -4z m2146 -16 c8 0 14 -7 14 -15 0
-14 -3 -13 -24 2 -13 10 -21 22 -18 28 3 5 7 4 10 -3 2 -7 10 -12 18 -12z
m-926 0 c0 -5 -6 -10 -14 -10 -8 0 -18 5 -21 10 -3 6 3 10 14 10 12 0 21 -4
21 -10z m-2117 -14 c7 -18 -42 -32 -57 -16 -8 9 -7 11 4 10 28 -4 41 0 35 10
-3 6 -2 10 3 10 6 0 12 -6 15 -14z m442 4 c3 -6 -4 -15 -17 -20 -13 -5 -32
-16 -43 -22 -86 -56 -117 -69 -95 -43 7 8 19 15 26 15 8 0 14 5 14 10 0 6 5
10 10 10 6 0 29 14 52 30 47 34 45 33 53 20z m415 6 c0 -2 -7 -7 -16 -10 -8
-3 -12 -2 -9 4 6 10 25 14 25 6z m220 -11 c11 -13 8 -15 -14 -15 -16 0 -26 5
-26 15 0 8 6 15 14 15 7 0 19 -7 26 -15z m-1912 -12 c2 -7 -1 -13 -8 -13 -6 0
-9 4 -5 9 3 5 -3 12 -12 15 -15 4 -15 5 1 3 11 -1 21 -8 24 -14z m2802 6 c-12
-8 -9 -9 12 -5 14 3 37 1 50 -4 20 -9 19 -9 -9 -4 -21 3 -33 2 -33 -5 0 -15
-25 -14 -39 2 -12 16 -5 27 18 27 14 0 14 -2 1 -11z m-2853 -5 c-3 -3 -12 -4
-19 -1 -8 3 -5 6 6 6 11 1 17 -2 13 -5z m962 -10 c10 -9 -35 -3 -49 6 -11 8
-7 9 15 4 17 -4 32 -8 34 -10z m746 -2 c-3 -3 -11 0 -18 7 -9 10 -8 11 6 5 10
-3 15 -9 12 -12z m65 -2 c0 -5 7 -10 15 -10 16 0 21 -15 8 -23 -5 -2 -3 -2 4
-1 17 4 26 -13 10 -19 -17 -6 -45 15 -40 31 3 6 -2 12 -11 12 -9 0 -16 5 -16
10 0 6 7 10 15 10 8 0 15 -4 15 -10z m237 4 c-3 -3 -12 -4 -19 -1 -8 3 -5 6 6
6 11 1 17 -2 13 -5z m121 -27 c7 -5 9 -13 6 -19 -4 -5 -9 -6 -13 -2 -3 5 -15
14 -25 20 -11 6 -22 16 -24 22 -3 11 18 3 56 -21z m-2014 2 c20 -12 36 -22 36
-24 0 -1 -9 -5 -21 -8 -15 -4 -19 -2 -15 9 3 8 0 14 -7 14 -17 0 -56 29 -40
30 6 0 28 -9 47 -21z m656 1 c0 -5 -5 -10 -11 -10 -5 0 -7 5 -4 10 3 6 8 10
11 10 2 0 4 -4 4 -10z m2054 -1 c-3 -6 -19 -9 -35 -5 -21 4 -31 1 -38 -13 -6
-10 -8 -21 -5 -24 3 -3 0 -8 -6 -12 -6 -3 -10 -3 -9 2 3 20 -2 24 -16 13 -13
-11 -13 -15 -3 -22 8 -5 2 -6 -15 -2 -27 6 -28 5 -16 -14 8 -12 20 -23 29 -26
9 -2 6 -4 -7 -5 -12 0 -28 6 -37 14 -17 17 -36 20 -36 5 0 -5 5 -10 11 -10 6
0 17 -6 24 -14 11 -11 8 -16 -21 -29 -19 -9 -34 -15 -34 -13 0 3 -3 12 -6 21
-5 13 -2 15 22 10 l29 -6 -27 18 c-16 10 -28 20 -28 23 0 3 22 15 48 27 26 13
63 34 82 47 35 25 108 36 94 15z m61 1 c-9 -15 -85 -52 -85 -42 0 7 51 36 88
51 2 0 0 -4 -3 -9z m-2855 -10 c8 -5 12 -11 9 -14 -3 -3 -14 1 -25 9 -21 16
-8 20 16 5z m718 -33 c2 -9 -4 -20 -13 -23 -21 -9 -33 5 -15 17 11 7 6 8 -15
3 -29 -6 -29 -6 -10 10 25 19 49 17 53 -7z m49 6 c-9 -9 -19 -14 -23 -11 -10
10 6 28 24 28 15 0 15 -1 -1 -17z m44 -7 c-7 -8 -10 -20 -7 -25 8 -13 -9 -22
-27 -15 -18 7 -11 34 8 34 7 0 16 7 19 16 4 9 9 14 13 11 3 -4 0 -13 -6 -21z
m1164 14 c3 -5 -1 -10 -9 -10 -9 0 -16 5 -16 10 0 6 4 10 9 10 6 0 13 -4 16
-10z m59 -16 c9 -23 8 -24 -19 -24 -37 0 -31 35 6 39 4 1 10 -6 13 -15z m57
-11 c11 -29 9 -29 -27 3 -28 25 -29 25 -5 22 14 -2 27 -12 32 -25z m66 12 c8
-22 -6 -33 -17 -15 -13 20 -12 30 0 30 6 0 13 -7 17 -15z m-2057 -25 c21 -16
42 -30 48 -30 5 0 15 -7 22 -15 11 -13 9 -14 -16 -3 -36 16 -124 68 -124 74 0
14 38 0 70 -26z m58 19 c-2 -6 -8 -10 -13 -10 -5 0 -11 4 -13 10 -2 6 4 11 13
11 9 0 15 -5 13 -11z m825 -6 c-7 -2 -19 -2 -25 0 -7 3 -2 5 12 5 14 0 19 -2
13 -5z m941 -8 c-6 -16 -24 -21 -24 -7 0 11 11 22 21 22 5 0 6 -7 3 -15z
m-824 0 c0 -1 -13 -11 -30 -23 -25 -19 -28 -20 -23 -5 8 21 19 30 38 30 8 0
15 -1 15 -2z m1077 -17 c-3 -8 -6 -5 -6 6 -1 11 2 17 5 13 3 -3 4 -12 1 -19z
m559 7 c-11 -8 -27 -15 -35 -15 -10 1 -7 6 9 15 33 19 50 18 26 0z m-1796 -5
c0 -5 -7 -10 -15 -10 -8 0 -15 5 -15 10 0 6 7 10 15 10 8 0 15 -4 15 -10z
m1111 -13 c-10 -9 -11 -8 -5 6 3 10 9 15 12 12 3 -3 0 -11 -7 -18z m183 10 c7
-7 11 -18 8 -25 -3 -9 3 -11 24 -6 19 5 25 4 20 -4 -4 -7 4 -14 21 -18 15 -4
37 -13 48 -21 19 -13 18 -14 -10 -7 -16 4 -40 14 -53 22 -12 8 -40 15 -60 16
-38 1 -38 1 -28 28 12 32 13 32 30 15z m-1971 -21 c26 -12 44 -26 40 -30 -9
-9 -35 -7 -29 3 3 4 -13 14 -34 21 -22 7 -40 17 -40 22 0 13 13 10 63 -16z
m732 14 c-3 -6 4 -10 16 -10 21 0 21 0 -3 -20 -14 -11 -60 -40 -102 -65 -72
-42 -103 -55 -93 -37 3 4 -24 7 -59 8 -35 0 -67 3 -70 7 -11 11 16 36 32 30 8
-3 14 0 14 6 0 12 58 15 85 5 13 -5 14 -8 3 -15 -10 -7 -10 -11 0 -21 9 -9 15
-10 20 -2 4 6 27 21 52 32 51 23 93 59 85 72 -3 4 1 11 7 13 19 8 20 8 13 -3z
m895 -5 c33 -17 40 -28 13 -18 -23 8 -60 33 -50 33 5 0 21 -7 37 -15z m67 9
c-3 -3 -12 -4 -19 -1 -8 3 -5 6 6 6 11 1 17 -2 13 -5z m-1177 -14 c0 -5 -7
-10 -16 -10 -8 0 -12 5 -9 10 3 6 10 10 16 10 5 0 9 -4 9 -10z m-220 -20 c10
0 21 -3 23 -7 6 -11 -16 -48 -31 -50 -17 -4 -15 17 3 23 23 9 18 21 -10 28
-16 4 -23 11 -19 18 6 9 9 9 12 0 2 -7 12 -12 22 -12z m50 16 c0 -3 -4 -8 -10
-11 -5 -3 -10 -1 -10 4 0 6 5 11 10 11 6 0 10 -2 10 -4z m242 -18 c-17 -8 -26
-8 -34 0 -9 9 -4 12 23 11 32 0 33 -1 11 -11z m1155 6 c-3 -3 -12 -4 -19 -1
-8 3 -5 6 6 6 11 1 17 -2 13 -5z m136 -8 c13 -10 15 -15 5 -18 -7 -3 -18 1
-25 8 -26 25 -10 33 20 10z m-1913 -6 c-11 -7 -9 -11 13 -19 15 -6 27 -14 27
-18 0 -11 62 -38 78 -35 6 2 12 -2 12 -8 0 -5 7 -10 15 -10 10 0 15 -9 14 -27
0 -16 2 -39 5 -53 5 -21 5 -22 -3 -5 -8 16 -10 12 -10 -23 -1 -29 3 -41 10
-36 8 4 8 1 1 -12 -5 -11 -8 -48 -5 -84 5 -73 13 -93 13 -34 0 21 4 44 8 50 4
7 7 -54 8 -135 0 -88 5 -156 12 -171 11 -23 11 -23 10 15 -1 22 -1 86 0 143 3
133 22 128 22 -5 0 -138 8 -111 12 40 1 71 6 134 10 140 10 15 8 66 14 -408 5
-413 -1 -594 -17 -510 -4 22 -9 85 -9 140 -2 84 -4 94 -12 65 -5 -19 -13 -55
-17 -80 -6 -43 -7 -43 -13 -15 -3 16 -2 38 3 48 6 9 7 22 4 27 -12 19 -25 -1
-26 -38 0 -30 -2 -33 -9 -17 -6 15 -9 5 -10 -35 -1 -69 -15 -130 -32 -141 -24
-16 -28 -9 -8 11 20 20 20 33 20 563 0 298 -3 552 -6 565 -4 12 -12 22 -20 22
-7 0 -30 10 -51 22 -21 11 -47 26 -58 32 -48 26 -50 29 -29 37 27 11 42 10 24
-1z m1756 -12 c14 -13 39 -28 57 -34 17 -6 33 -16 35 -22 5 -17 -23 -15 -38 3
-7 8 -18 15 -24 15 -19 1 -91 60 -73 60 9 0 28 -10 43 -22z m-1456 2 c0 -5 -9
-10 -21 -10 -11 0 -29 -5 -41 -11 -11 -6 -22 -8 -25 -6 -7 7 48 36 70 37 9 0
17 -4 17 -10z m344 -2 c-5 -8 -2 -9 10 -5 12 5 16 3 13 -5 -4 -13 -19 -13 -67
-1 l-25 6 25 7 c38 12 52 11 44 -2z m1352 -64 c-13 -34 -21 -10 -12 33 11 45
11 46 14 14 2 -18 1 -39 -2 -47z m328 70 c9 -3 16 -12 16 -20 0 -16 -36 -19
-45 -4 -3 6 1 7 9 4 9 -3 16 -2 16 4 0 6 -6 13 -12 15 -7 3 -10 6 -6 6 3 1 13
-2 22 -5z m-2220 -12 c2 -4 -7 -9 -22 -10 -21 -1 -24 0 -12 8 18 12 27 12 34
2z m2156 -2 c0 -5 -4 -10 -10 -10 -5 0 -10 5 -10 10 0 6 5 10 10 10 6 0 10 -4
10 -10z m-202 -26 c13 -9 29 -13 37 -10 10 3 12 0 8 -11 -5 -12 -3 -14 8 -8
12 8 12 6 0 -8 -13 -17 -16 -16 -41 8 -14 14 -31 25 -38 25 -7 0 -12 5 -12 10
0 14 12 12 38 -6z m-1948 -4 c0 -5 -2 -10 -4 -10 -3 0 -8 5 -11 10 -3 6 -1 10
4 10 6 0 11 -4 11 -10z m60 -11 c0 -5 -4 -9 -10 -9 -5 0 -10 7 -10 16 0 8 5
12 10 9 6 -3 10 -10 10 -16z m30 1 c0 -5 -4 -10 -10 -10 -5 0 -10 5 -10 10 0
6 5 10 10 10 6 0 10 -4 10 -10z m2000 0 c0 -6 -8 -10 -17 -8 -12 2 -19 -4 -21
-19 -4 -25 -32 -32 -32 -8 0 8 5 15 10 15 6 0 10 7 10 15 0 9 9 15 25 15 14 0
25 -5 25 -10z m110 6 c0 -3 -4 -8 -10 -11 -5 -3 -10 -1 -10 4 0 6 5 11 10 11
6 0 10 -2 10 -4z m-373 -32 c21 -21 23 -28 12 -35 -8 -5 -18 -8 -24 -8 -5 0
-5 3 2 5 16 7 -17 41 -37 39 -8 -1 -9 0 -2 2 6 3 12 9 12 14 0 15 9 11 37 -17z
m-1689 9 c-10 -2 -18 -11 -18 -19 0 -17 -26 -19 -36 -3 -9 15 15 29 46 28 17
-1 19 -3 8 -6z m180 -20 c31 -30 -12 -82 -54 -66 -21 8 -6 23 22 23 17 0 24 5
24 20 0 20 -4 22 -49 24 -13 1 -26 6 -28 12 -5 15 68 4 85 -13z m1835 14 c-2
-4 -14 -5 -25 -1 -11 3 -18 2 -15 -3 3 -4 0 -15 -7 -24 -9 -13 -13 -14 -24 -3
-9 10 -7 16 10 28 22 16 71 18 61 3z m-223 -23 c0 -18 -14 -18 -29 0 -9 11 -9
15 1 19 17 6 28 -1 28 -19z m-1687 0 c12 -4 13 -11 5 -34 -8 -25 -13 -28 -34
-20 -19 7 -24 6 -24 -5 0 -8 7 -15 15 -15 22 0 18 -37 -5 -43 -11 -3 -20 -12
-20 -21 0 -14 4 -15 23 -5 12 7 25 16 28 22 4 5 9 5 13 -2 9 -14 -51 -43 -74
-36 -20 6 -28 25 -10 25 17 0 33 40 21 54 -7 8 -7 24 1 49 11 37 27 45 61 31z
m181 -15 c8 7 21 11 28 9 7 -3 -10 -16 -37 -30 -90 -46 -120 -63 -123 -70 -2
-5 -11 -8 -20 -8 -24 1 23 36 66 51 22 7 32 16 28 25 -7 17 26 37 36 21 5 -8
11 -7 22 2z m1472 -23 c13 -10 16 -18 8 -25 -7 -8 -17 -4 -34 14 -26 28 -8 36
26 11z m69 -34 c-2 -3 -11 1 -20 8 -12 10 -13 16 -3 27 10 13 13 11 20 -8 5
-12 6 -24 3 -27z m112 28 c-3 -11 -1 -22 3 -25 5 -3 11 5 13 17 2 13 5 1 6
-27 1 -27 3 -70 5 -95 1 -25 0 -81 -4 -125 -7 -79 -7 -78 -9 41 -1 113 -2 122
-21 127 -25 6 -26 -8 -3 -22 10 -5 15 -13 11 -16 -8 -8 -68 32 -68 46 0 5 -9
9 -21 9 -23 0 -79 30 -79 42 0 12 13 9 38 -8 13 -9 29 -13 37 -10 9 3 19 -3
25 -15 13 -24 34 -14 27 12 -6 22 8 26 17 4 3 -8 12 -15 21 -15 19 0 19 7 0
26 -18 18 -20 54 -4 54 6 0 9 -9 6 -20z m-60 -12 c-3 -8 -6 -5 -6 6 -1 11 2
17 5 13 3 -3 4 -12 1 -19z m-1762 -28 c-3 -5 -10 -10 -16 -10 -5 0 -9 5 -9 10
0 6 7 10 16 10 8 0 12 -4 9 -10z m3795 -316 c0 -163 -2 -300 -5 -302 -3 -3 -5
133 -5 303 0 170 2 306 5 303 3 -3 6 -140 5 -304z m107 63 c-2 -23 -3 -1 -3
48 0 50 1 68 3 42 2 -26 2 -67 0 -90z m-4009 -872 c-2 -19 -6 -22 -18 -14 -11
8 -12 12 -2 16 6 2 13 19 13 36 1 24 3 26 6 10 2 -13 3 -34 1 -48z m-178 38
c-8 -4 -21 -12 -28 -20 -7 -7 -21 -13 -30 -12 -13 0 -12 2 4 9 12 5 25 13 29
19 3 6 14 11 23 10 14 0 14 -2 2 -6z m130 -23 c0 -5 -2 -10 -4 -10 -3 0 -8 5
-11 10 -3 6 -1 10 4 10 6 0 11 -4 11 -10z m-91 -20 c-6 -5 -18 -6 -26 -3 -19
8 -16 11 13 11 17 0 22 -3 13 -8z m-162 -87 c-2 -1 -14 1 -27 4 -22 6 -22 7
-4 13 15 6 40 -8 31 -17z m-132 -22 c-3 -6 -11 -11 -17 -11 -6 0 -6 6 2 15 14
17 26 13 15 -4z m95 -1 c0 -5 -2 -10 -4 -10 -3 0 -8 5 -11 10 -3 6 -1 10 4 10
6 0 11 -4 11 -10z"/>
<path d="M4097 12272 c-10 -2 -16 -9 -14 -15 5 -16 46 -22 59 -9 13 13 -20 30
-45 24z"/>
<path d="M3743 11830 c0 -41 2 -58 4 -37 2 20 2 54 0 75 -2 20 -4 3 -4 -38z"/>
<path d="M3742 11665 l1 -60 7 45 c4 25 4 52 -1 60 -5 9 -8 -8 -7 -45z"/>
<path d="M3801 11683 c0 -10 4 -27 9 -38 7 -16 9 -13 9 18 1 20 -3 37 -9 37
-5 0 -10 -8 -9 -17z"/>
<path d="M3801 11374 c0 -11 3 -14 6 -6 3 7 2 16 -1 19 -3 4 -6 -2 -5 -13z"/>
<path d="M3743 11320 c0 -25 2 -35 4 -22 2 12 2 32 0 45 -2 12 -4 2 -4 -23z"/>
</g>
</svg>
